<svg id="Capa_1" enable-background="new 0 0 512 512" height="512" viewBox="0 0 512 512" width="512" xmlns="http://www.w3.org/2000/svg"><g><path d="m502 343.287h-.098v-56.797c0-.005 0-.009 0-.014.005-1.397-.368-2.843-.726-3.729l-35.525-93.891c-1.471-3.889-5.195-6.462-9.353-6.462h-57.774v-61.163c0-14.825-12.061-26.887-26.886-26.887h-151.916c-18.192-39.747-58.259-67.418-104.65-67.418-63.451.001-115.072 51.764-115.072 115.39 0 50.886 33.019 94.185 78.701 109.483v91.487h-.097c-5.523 0-10 4.477-10 10v60.23c0 5.523 4.477 10 10 10h45.235c-.684 3.34-1.044 6.798-1.044 10.338 0 28.242 22.88 51.219 51.004 51.219s51.005-22.977 51.005-51.219c0-3.54-.36-6.998-1.044-10.338h143.813c-.684 3.34-1.044 6.798-1.044 10.338 0 28.242 22.881 51.219 51.005 51.219s51.004-22.977 51.004-51.219c0-3.54-.36-6.998-1.044-10.338h34.506c5.522 0 10-4.477 10-10v-60.23c0-5.522-4.478-9.999-10-9.999zm-103.473-46.797h83.375v46.792h-83.375zm0-94.095h50.864l28.035 74.096h-78.899zm-378.527-60.079c0-52.598 42.649-95.39 95.072-95.39s95.072 42.792 95.072 95.39-42.649 95.389-95.072 95.389c-52.423.001-95.072-42.791-95.072-95.389zm78.701 114.225c5.349.767 10.814 1.165 16.371 1.165 63.451 0 115.072-51.763 115.072-115.389 0-9.643-1.186-19.013-3.419-27.972h144.915c3.797 0 6.886 3.089 6.886 6.887v222.055h-279.825zm75.098 208.532c-17.096 0-31.004-14.005-31.004-31.219s13.909-31.219 31.004-31.219c17.096 0 31.005 14.005 31.005 31.219s-13.909 31.219-31.005 31.219zm243.735 0c-17.096 0-31.005-14.005-31.005-31.219s13.909-31.219 31.005-31.219 31.004 14.005 31.004 31.219-13.908 31.219-31.004 31.219zm74.466-61.556h-33.358c-.012 0-.024 0-.036 0-9.295-12.656-24.244-20.881-41.071-20.881-16.826 0-31.776 8.225-41.071 20.881h-161.55c-.014 0-.029 0-.043 0-9.295-12.656-24.245-20.881-41.072-20.881-16.826 0-31.776 8.225-41.071 20.881h-44.125v-40.23h403.397z"/><path d="m133.352 156.9c5.523 0 10-4.477 10-10s-4.477-10-10-10h-8.28v-20.559c0-5.523-4.477-10-10-10s-10 4.477-10 10v30.559c0 5.523 4.477 10 10 10z"/></g></svg>