<?xml version="1.0" encoding="utf-8"?>
<!-- Generator: Adobe Illustrator 24.3.0, SVG Export Plug-In . SVG Version: 6.00 Build 0)  -->
<svg version="1.1" id="Laag_1" xmlns="http://www.w3.org/2000/svg" xmlns:xlink="http://www.w3.org/1999/xlink" x="0px" y="0px"
	 viewBox="0 0 167 168" style="enable-background:new 0 0 167 168;" xml:space="preserve">
<style type="text/css">
	.st0{fill:#FFFFFF;}
	.st1{font-family:'Montserrat-Bold';}
	.st2{font-size:93.3452px;}
</style>
<g>
	
		<ellipse transform="matrix(0.9239 -0.3827 0.3827 0.9239 -25.5344 38.2108)" class="st0" cx="83.3" cy="83.3" rx="77.7" ry="77.7"/>
	<path d="M83.3,11.6c39.5,0,71.7,32.2,71.7,71.7S122.8,155,83.3,155s-71.7-32.2-71.7-71.7S43.7,11.6,83.3,11.6 M83.3-0.4
		C37-0.4-0.4,37.1-0.4,83.3S37,167,83.3,167S167,129.5,167,83.3S129.5-0.4,83.3-0.4L83.3-0.4z"/>
</g>
<text transform="matrix(1 0 0 1 68.3389 118.708)" class="st1 st2">i</text>
</svg>
