<?xml version="1.0" encoding="iso-8859-1"?>
<!-- Generator: Adobe Illustrator 19.0.0, SVG Export Plug-In . SVG Version: 6.00 Build 0)  -->
<svg version="1.1" id="Capa_1" xmlns="http://www.w3.org/2000/svg" xmlns:xlink="http://www.w3.org/1999/xlink" x="0px" y="0px"
	 viewBox="0 0 512 512" style="enable-background:new 0 0 512 512;" xml:space="preserve">
<g>
	<g>
		<path d="M486.989,108.303c-0.1-1.106-0.379-2.159-0.81-3.132L444.796,6.144C443.241,2.423,439.603,0,435.569,0H76.431
			c-4.033,0-7.672,2.423-9.227,6.144l-41.383,99.027c-0.43,0.972-0.71,2.026-0.809,3.132C25.009,108.326,24.97,502,24.97,502
			c0,5.522,4.478,10,10,10h442.06c5.522,0,10-4.478,10-10C487.03,502,486.991,108.326,486.989,108.303z M428.91,20l33.104,79.213
			h-122.25L323.212,20H428.91z M209.221,20h93.558l16.552,79.213H192.669L209.221,20z M321.676,119.213v95.863l-23.082-12.552
			c-2.979-1.619-6.574-1.62-9.553-0.001L256,220.482l-33.041-17.959c-1.489-0.81-3.132-1.214-4.775-1.214
			c-1.644,0-3.288,0.405-4.777,1.215l-23.082,12.552v-95.863H321.676z M83.09,20h105.698l-16.551,79.213H49.986L83.09,20z
			 M44.97,119.213h125.355v25.014H44.97V119.213z M321.676,492H190.324V349.64l23.082,12.553c2.979,1.619,6.576,1.621,9.553,0.001
			L256,344.233l33.041,17.96c2.979,1.619,6.574,1.618,9.553-0.001l23.082-12.553V492z M467.03,492H341.676V332.818
			c0-3.527-1.858-6.793-4.89-8.596c-3.033-1.802-6.79-1.873-9.888-0.189l-33.083,17.991l-33.04-17.959
			c-2.977-1.619-6.574-1.619-9.551,0l-33.04,17.959l-33.083-17.991c-3.099-1.684-6.855-1.613-9.888,0.189
			c-3.031,1.803-4.89,5.068-4.89,8.596V492H44.97V164.227h125.355v67.671c0,3.527,1.858,6.793,4.89,8.596
			c3.033,1.803,6.79,1.873,9.888,0.189l33.083-17.99l33.04,17.958c2.979,1.619,6.572,1.619,9.551,0l33.04-17.958l33.083,17.99
			c1.491,0.811,3.135,1.215,4.777,1.215c1.77,0,3.538-0.47,5.11-1.404c3.031-1.803,4.89-5.068,4.89-8.596v-67.671h46.574
			c5.522,0,10-4.478,10-10c0-5.522-4.478-10-10-10h-46.574v-25.014H467.03V492z"/>
	</g>
</g>
<g>
	<g>
		<path d="M440.469,152.051c-0.13-0.64-0.32-1.269-0.57-1.87c-0.25-0.611-0.56-1.19-0.92-1.73c-0.359-0.55-0.779-1.06-1.239-1.52
			c-0.471-0.46-0.981-0.88-1.521-1.24c-0.549-0.359-1.129-0.67-1.729-0.92c-0.6-0.25-1.23-0.45-1.87-0.569
			c-1.29-0.261-2.62-0.261-3.91,0c-0.641,0.119-1.27,0.319-1.87,0.569c-0.599,0.25-1.179,0.561-1.73,0.92
			c-0.54,0.36-1.05,0.78-1.51,1.24c-0.47,0.459-0.88,0.969-1.25,1.52c-0.359,0.541-0.67,1.12-0.92,1.73
			c-0.25,0.6-0.439,1.23-0.57,1.87c-0.13,0.639-0.19,1.3-0.19,1.95c0,0.649,0.06,1.309,0.19,1.95c0.131,0.639,0.32,1.269,0.57,1.869
			c0.25,0.61,0.561,1.19,0.92,1.73c0.37,0.55,0.78,1.06,1.25,1.52c0.46,0.461,0.97,0.881,1.51,1.24c0.55,0.37,1.13,0.67,1.73,0.92
			c0.6,0.25,1.229,0.45,1.87,0.58c0.65,0.129,1.3,0.19,1.96,0.19c0.649,0,1.309-0.061,1.95-0.19c0.64-0.13,1.269-0.33,1.87-0.58
			c0.599-0.25,1.179-0.55,1.729-0.92c0.541-0.359,1.061-0.779,1.521-1.24c0.46-0.46,0.88-0.97,1.239-1.52
			c0.36-0.54,0.67-1.12,0.92-1.73c0.25-0.599,0.44-1.229,0.57-1.869s0.2-1.301,0.2-1.95
			C440.669,153.351,440.599,152.691,440.469,152.051z"/>
	</g>
</g>
<g>
</g>
<g>
</g>
<g>
</g>
<g>
</g>
<g>
</g>
<g>
</g>
<g>
</g>
<g>
</g>
<g>
</g>
<g>
</g>
<g>
</g>
<g>
</g>
<g>
</g>
<g>
</g>
<g>
</g>
</svg>
